# xmcd CD database file
#
# Track frame offsets:
#	150
#	3027
#	30915
#	50555
#	68582
#	79372
#	96900
#	123047
#	142932
#	158835
#	179672
#	198877
#
# Disc length: 2718 seconds
#
# Revision: 3
# Processed by: cddbd v1.5.2PL0 Copyright (c) Steve Scherf et al.
# Submitted via: CDex 1.60beta1-cs1
#
DISCID=8e0a9c0c
DTITLE=かせきさいだぁ≡ - SKYNUTS
DYEAR=1998
DGENRE=Hip-Hop
TTITLE0=INTRO
TTITLE1=SKYnuts
TTITLE2=悲しみの観察日記
TTITLE3=宇宙の法則
TTITLE4=風化の頃
TTITLE5=トロピカルサイダー20000マイル
TTITLE6=CIDER MOON
TTITLE7=ポップアート
TTITLE8=ウインド・ブレイカー
TTITLE9=急げハリー!!
TTITLE10=午後のパノラマ
TTITLE11=OUTRO
EXTD=YEAR: 1998
EXTT0=
EXTT1=
EXTT2=
EXTT3=
EXTT4=
EXTT5=
EXTT6=
EXTT7=
EXTT8=
EXTT9=
EXTT10=
EXTT11=
PLAYORDER=
